<svg width="22" height="23" viewBox="0 0 22 23" fill="none" xmlns="http://www.w3.org/2000/svg">
<path d="M16 1.81775H6C3.23858 1.81775 1 4.05633 1 6.81775V16.8177C1 19.5792 3.23858 21.8177 6 21.8177H16C18.7614 21.8177 21 19.5792 21 16.8177V6.81775C21 4.05633 18.7614 1.81775 16 1.81775Z" stroke="#6436C4" stroke-width="2" stroke-linecap="round" stroke-linejoin="round"/>
<path d="M15 11.1877C15.1234 12.02 14.9813 12.87 14.5938 13.6168C14.2063 14.3636 13.5931 14.9692 12.8416 15.3474C12.0901 15.7257 11.2384 15.8573 10.4078 15.7237C9.57712 15.59 8.80976 15.1978 8.21484 14.6029C7.61991 14.008 7.22773 13.2406 7.09406 12.41C6.9604 11.5793 7.09206 10.7276 7.47032 9.97612C7.84858 9.2246 8.45418 8.61149 9.20098 8.22399C9.94778 7.83649 10.7978 7.69433 11.63 7.81775C12.4789 7.94363 13.2648 8.33921 13.8717 8.94605C14.4785 9.55289 14.8741 10.3388 15 11.1877Z" stroke="#6436C4" stroke-width="2" stroke-linecap="round" stroke-linejoin="round"/>
<path d="M16.5 6.31775H16.51" stroke="#6436C4" stroke-width="2" stroke-linecap="round" stroke-linejoin="round"/>
</svg>
