<svg width="20" height="21" viewBox="0 0 20 21" fill="none" xmlns="http://www.w3.org/2000/svg">
<path d="M18.9809 11.6269C18.8236 13.3291 18.1848 14.9513 17.1392 16.3036C16.0936 17.656 14.6844 18.6826 13.0766 19.2634C11.4688 19.8441 9.7289 19.955 8.06042 19.5829C6.39194 19.2109 4.86391 18.3714 3.65514 17.1626C2.44638 15.9539 1.60686 14.4258 1.23483 12.7574C0.862795 11.0889 0.973635 9.34894 1.55438 7.74115C2.13512 6.13336 3.16175 4.72422 4.51413 3.67861C5.86651 2.63299 7.48872 1.99416 9.19092 1.83685C8.19433 3.18512 7.71477 4.8463 7.83945 6.51827C7.96413 8.19023 8.68478 9.76191 9.87032 10.9475C11.0559 12.133 12.6275 12.8536 14.2995 12.9783C15.9715 13.103 17.6327 12.6234 18.9809 11.6269Z" stroke="#6436C4" stroke-width="2" stroke-linecap="round" stroke-linejoin="round"/>
</svg>
