<svg width="32" height="33" viewBox="0 0 32 33" fill="none" xmlns="http://www.w3.org/2000/svg">
<path d="M28 15.6059C28.0046 17.3657 27.5934 19.1018 26.8 20.6726C25.8592 22.5549 24.413 24.1382 22.6233 25.245C20.8335 26.3518 18.771 26.9384 16.6667 26.9393C14.9068 26.9438 13.1708 26.5327 11.6 25.7393L4 28.2726L6.53333 20.6726C5.73991 19.1018 5.32875 17.3657 5.33333 15.6059C5.33415 13.5016 5.92082 11.4391 7.02763 9.64932C8.13444 7.85959 9.71767 6.41335 11.6 5.47259C13.1708 4.67917 14.9068 4.268 16.6667 4.27259H17.3333C20.1125 4.42591 22.7374 5.59894 24.7055 7.56707C26.6737 9.5352 27.8467 12.1601 28 14.9393V15.6059Z" stroke="#F1EEF7" stroke-width="2.66667" stroke-linecap="round" stroke-linejoin="round"/>
</svg>
