<svg width="23" height="22" viewBox="0 0 23 22" fill="none" xmlns="http://www.w3.org/2000/svg">
<path d="M15.5366 7.31775C17.1279 7.31775 18.654 7.94989 19.7793 9.07511C20.9045 10.2003 21.5366 11.7265 21.5366 13.3177V20.3177H17.5366V13.3177C17.5366 12.7873 17.3259 12.2786 16.9508 11.9035C16.5758 11.5285 16.0671 11.3177 15.5366 11.3177C15.0062 11.3177 14.4975 11.5285 14.1224 11.9035C13.7473 12.2786 13.5366 12.7873 13.5366 13.3177V20.3177H9.53662V13.3177C9.53662 11.7265 10.1688 10.2003 11.294 9.07511C12.4192 7.94989 13.9453 7.31775 15.5366 7.31775Z" stroke="#6436C4" stroke-width="2" stroke-linecap="round" stroke-linejoin="round"/>
<path d="M5.53662 8.31775H1.53662V20.3177H5.53662V8.31775Z" stroke="#6436C4" stroke-width="2" stroke-linecap="round" stroke-linejoin="round"/>
<path d="M3.53662 5.31775C4.64119 5.31775 5.53662 4.42232 5.53662 3.31775C5.53662 2.21318 4.64119 1.31775 3.53662 1.31775C2.43205 1.31775 1.53662 2.21318 1.53662 3.31775C1.53662 4.42232 2.43205 5.31775 3.53662 5.31775Z" stroke="#6436C4" stroke-width="2" stroke-linecap="round" stroke-linejoin="round"/>
</svg>
