<svg width="228" height="60" viewBox="0 0 228 60" fill="none" xmlns="http://www.w3.org/2000/svg">
<path d="M42.852 10.064C36.2904 6.27562 28.4926 5.24902 21.1741 7.21001C13.8556 9.17101 7.61581 13.959 3.82746 20.5206C0.0391065 27.0822 -0.987491 34.88 0.973502 42.1985C2.9345 49.517 7.72245 55.7568 14.2841 59.5452L42.852 10.064Z" fill="#6436C4"/>
<path d="M49.4276 3.12109C54.3339 6.53609 57.9487 11.5292 59.6473 17.293L59.825 17.9219C61.5768 24.4597 60.7424 31.4126 57.5125 37.3418L57.1932 37.9121C53.809 43.7737 48.3032 48.101 41.827 50.0098L41.1971 50.1865C35.168 51.802 28.7871 51.2165 23.1805 48.583L49.4276 3.12109Z" stroke="#6436C4" stroke-width="4.44852"/>
<path d="M76.8515 44.2726V22.5354H82.6261V44.2726H76.8515ZM79.7388 20.3493C78.6664 20.3493 77.8002 20.0331 77.1402 19.4006C76.4803 18.7407 76.1503 17.902 76.1503 16.8846C76.1503 15.8121 76.494 14.946 77.1815 14.286C77.8689 13.626 78.7351 13.2961 79.78 13.2961C80.7425 13.2961 81.5674 13.626 82.2549 14.286C82.9698 14.9185 83.3273 15.7709 83.3273 16.8433C83.3273 17.8882 82.9836 18.7407 82.2961 19.4006C81.6362 20.0331 80.7837 20.3493 79.7388 20.3493ZM87.2035 44.2726V15.0697H92.9781V44.2726H87.2035ZM97.5556 44.2726V15.0697H103.33V25.0515C103.963 24.309 104.664 23.7316 105.434 23.3191C106.231 22.9066 107.029 22.6179 107.826 22.4529C108.651 22.2604 109.407 22.1642 110.095 22.1642C112.13 22.1642 113.724 22.6179 114.879 23.5253C116.034 24.4328 116.859 25.6564 117.354 27.1963C117.849 28.7362 118.097 30.4273 118.097 32.2697V44.2726H112.322V33.0946C112.322 32.4347 112.253 31.7747 112.116 31.1148C112.006 30.4548 111.8 29.8499 111.497 29.2999C111.195 28.7225 110.768 28.2687 110.218 27.9388C109.668 27.5813 108.94 27.4026 108.032 27.4026C107.18 27.4026 106.451 27.5813 105.846 27.9388C105.241 28.2962 104.746 28.7775 104.361 29.3824C104.004 29.9599 103.743 30.6061 103.578 31.321C103.413 32.036 103.33 32.7509 103.33 33.4659V44.2726H97.5556ZM132.387 44.5613C129.198 44.5613 126.737 43.7501 125.004 42.1277C123.299 40.4779 122.447 38.003 122.447 34.7033V22.5354H128.221V34.2908C128.221 35.2807 128.359 36.1607 128.634 36.9306C128.936 37.6731 129.39 38.2643 129.995 38.7042C130.628 39.1442 131.439 39.3642 132.429 39.3642C133.501 39.3642 134.326 39.1305 134.903 38.663C135.481 38.1955 135.88 37.5768 136.1 36.8069C136.32 36.0094 136.43 35.1707 136.43 34.2908V22.5354H142.163V34.7033C142.163 38.1405 141.297 40.6428 139.564 42.2102C137.859 43.7776 135.467 44.5613 132.387 44.5613ZM146.657 44.2726V22.5354H152.432V44.2726H146.657ZM149.545 20.3493C148.472 20.3493 147.606 20.0331 146.946 19.4006C146.286 18.7407 145.956 17.902 145.956 16.8846C145.956 15.8121 146.3 14.946 146.987 14.286C147.675 13.626 148.541 13.2961 149.586 13.2961C150.548 13.2961 151.373 13.626 152.061 14.286C152.776 14.9185 153.133 15.7709 153.133 16.8433C153.133 17.8882 152.789 18.7407 152.102 19.4006C151.442 20.0331 150.589 20.3493 149.545 20.3493ZM166.744 44.5613C164.516 44.5613 162.605 44.1076 161.01 43.2002C159.443 42.2927 158.247 41.0141 157.422 39.3642C156.597 37.6868 156.184 35.7207 156.184 33.4659C156.184 31.1835 156.611 29.2037 157.463 27.5263C158.315 25.8214 159.539 24.5015 161.134 23.5666C162.756 22.6316 164.709 22.1642 166.991 22.1642C168.751 22.1642 170.318 22.4804 171.693 23.1129C173.068 23.7453 174.168 24.6527 174.993 25.8352C175.845 27.0176 176.34 28.475 176.478 30.2073H170.827C170.58 29.2449 170.098 28.5437 169.383 28.1038C168.696 27.6638 167.871 27.4438 166.909 27.4438C165.671 27.4438 164.681 27.7463 163.939 28.3512C163.224 28.9562 162.701 29.7261 162.371 30.6611C162.069 31.596 161.918 32.5309 161.918 33.4659C161.918 34.4833 162.083 35.4457 162.413 36.3532C162.743 37.2331 163.265 37.9618 163.98 38.5392C164.722 39.0892 165.685 39.3642 166.867 39.3642C167.857 39.3642 168.723 39.1442 169.466 38.7042C170.208 38.2368 170.69 37.5218 170.91 36.5594H176.684C176.547 38.3468 176.01 39.8317 175.075 41.0141C174.141 42.1965 172.944 43.0902 171.487 43.6951C170.057 44.2726 168.476 44.5613 166.744 44.5613ZM187.059 44.5613C186.069 44.5613 185.106 44.4376 184.171 44.1901C183.264 43.9151 182.453 43.5026 181.738 42.9527C181.023 42.4027 180.459 41.7153 180.047 40.8903C179.634 40.0654 179.428 39.103 179.428 38.003C179.428 36.5181 179.73 35.3357 180.335 34.4558C180.94 33.5484 181.752 32.8609 182.769 32.3934C183.786 31.926 184.955 31.6097 186.275 31.4448C187.622 31.2798 189.011 31.1973 190.441 31.1973H193.576C193.576 30.3998 193.425 29.6986 193.122 29.0937C192.847 28.4612 192.421 27.98 191.843 27.65C191.266 27.2926 190.523 27.1138 189.616 27.1138C189.039 27.1138 188.475 27.1963 187.925 27.3613C187.402 27.4988 186.962 27.705 186.605 27.98C186.248 28.255 186.014 28.6125 185.904 29.0524H180.047C180.212 27.8425 180.597 26.8113 181.202 25.9589C181.807 25.079 182.563 24.364 183.47 23.8141C184.378 23.2641 185.368 22.8654 186.44 22.6179C187.54 22.3429 188.667 22.2054 189.822 22.2054C192.985 22.2054 195.322 23.1129 196.834 24.9277C198.347 26.7151 199.103 29.2587 199.103 32.5584V44.2726H193.906L193.823 41.4678C193.136 42.4302 192.352 43.1314 191.472 43.5714C190.62 44.0114 189.795 44.2863 188.997 44.3963C188.2 44.5063 187.554 44.5613 187.059 44.5613ZM188.379 39.9829C189.341 39.9829 190.221 39.7904 191.018 39.4054C191.816 39.0205 192.448 38.498 192.916 37.838C193.383 37.1781 193.617 36.4356 193.617 35.6107V35.0745H189.657C189.08 35.0745 188.516 35.102 187.966 35.157C187.444 35.212 186.962 35.322 186.522 35.487C186.11 35.6245 185.78 35.8582 185.533 36.1882C185.285 36.5181 185.161 36.9581 185.161 37.5081C185.161 38.058 185.299 38.5255 185.574 38.9105C185.876 39.2679 186.275 39.5429 186.77 39.7354C187.265 39.9004 187.801 39.9829 188.379 39.9829ZM213.472 44.2726C211.657 44.2726 210.131 44.0526 208.893 43.6126C207.683 43.1727 206.762 42.4302 206.13 41.3853C205.525 40.3129 205.222 38.8555 205.222 37.0131V27.6913H202.005V22.5354H205.222V16.7196H210.997V22.5354H215.74V27.6913H210.997V36.1882C210.997 37.0956 211.162 37.8105 211.492 38.333C211.822 38.8555 212.564 39.1167 213.719 39.1167H215.534V44.2726H213.472ZM218.719 44.2726V15.0697H224.493V44.2726H218.719Z" fill="#211D29"/>
</svg>
