<svg width="168" height="42" viewBox="0 0 168 42" fill="none" xmlns="http://www.w3.org/2000/svg">
<path d="M30.185 7.85629C25.6739 5.2518 20.3129 4.54601 15.2815 5.8942C10.25 7.24238 5.96011 10.5341 3.35562 15.0452C0.751129 19.5563 0.0453429 24.9173 1.39353 29.9488C2.74171 34.9803 6.03343 39.2701 10.5445 41.8746L30.185 7.85629Z" fill="#C2AFE9"/>
<path d="M34.7062 3.08282C38.2014 5.51563 40.743 9.11377 41.8537 13.2586C43.0969 17.8983 42.4457 22.8419 40.0441 27.0018C37.6424 31.1616 33.6867 34.197 29.047 35.4402C24.902 36.5509 20.5149 36.1493 16.6603 34.3387L34.7062 3.08282Z" stroke="#C2AFE9" stroke-width="3.05836"/>
<path d="M58.4371 15.9229V31.406H54.2119V15.9229H58.4371ZM56.3387 9.85439C56.9625 9.85439 57.5013 10.0056 57.955 10.3081C58.4088 10.5917 58.6356 11.1305 58.6356 11.9245C58.6356 12.6996 58.4088 13.2384 57.955 13.5408C57.5013 13.8433 56.9625 13.9946 56.3387 13.9946C55.6959 13.9946 55.1477 13.8433 54.6939 13.5408C54.2591 13.2384 54.0417 12.6996 54.0417 11.9245C54.0417 11.1305 54.2591 10.5917 54.6939 10.3081C55.1477 10.0056 55.6959 9.85439 56.3387 9.85439ZM67.0772 31.406H62.852V9.85439H67.0772V31.406ZM75.7174 14.2498C75.7174 15.006 75.689 15.7338 75.6323 16.4333C75.5945 17.1328 75.5567 17.6243 75.5189 17.9079H75.7457C76.086 17.3785 76.483 16.9532 76.9367 16.6318C77.3904 16.2915 77.8914 16.0457 78.4397 15.8945C79.0068 15.7244 79.6023 15.6393 80.2262 15.6393C81.3416 15.6393 82.3152 15.8378 83.147 16.2348C83.9788 16.6318 84.6216 17.2462 85.0753 18.078C85.5479 18.9098 85.7842 19.9874 85.7842 21.3108V31.406H81.559V22.36C81.559 21.2446 81.351 20.4128 80.9351 19.8645C80.5381 19.2974 79.9142 19.0138 79.0635 19.0138C78.2128 19.0138 77.5417 19.2123 77.0502 19.6093C76.5775 20.0063 76.2372 20.5829 76.0293 21.3391C75.8213 22.0953 75.7174 23.0216 75.7174 24.1181V31.406H71.4921V9.85439H75.7174V14.2498ZM104.336 15.9229V31.406H101.104L100.536 29.4209H100.31C99.9882 29.9503 99.5723 30.3851 99.0619 30.7254C98.5703 31.0468 98.0221 31.2831 97.4171 31.4343C96.8122 31.6045 96.1883 31.6895 95.5456 31.6895C94.4491 31.6895 93.4849 31.491 92.6531 31.094C91.8213 30.697 91.1785 30.0826 90.7248 29.2508C90.2711 28.419 90.0442 27.3414 90.0442 26.0181V15.9229H94.2695V24.9688C94.2695 26.0653 94.468 26.8971 94.865 27.4643C95.262 28.0314 95.8953 28.315 96.7649 28.315C97.6345 28.315 98.3057 28.1165 98.7783 27.7195C99.2698 27.3225 99.6101 26.7459 99.7992 25.9897C100.007 25.2335 100.111 24.3072 100.111 23.2107V15.9229H104.336ZM112.992 15.9229V31.406H108.766V15.9229H112.992ZM110.893 9.85439C111.517 9.85439 112.056 10.0056 112.51 10.3081C112.963 10.5917 113.19 11.1305 113.19 11.9245C113.19 12.6996 112.963 13.2384 112.51 13.5408C112.056 13.8433 111.517 13.9946 110.893 13.9946C110.251 13.9946 109.702 13.8433 109.249 13.5408C108.814 13.2384 108.596 12.6996 108.596 11.9245C108.596 11.1305 108.814 10.5917 109.249 10.3081C109.702 10.0056 110.251 9.85439 110.893 9.85439ZM123.702 31.6895C122.171 31.6895 120.866 31.4154 119.789 30.8672C118.711 30.3 117.889 29.4304 117.322 28.2583C116.754 27.0862 116.471 25.5833 116.471 23.7495C116.471 21.859 116.792 20.3182 117.435 19.1272C118.078 17.9362 118.966 17.0572 120.101 16.49C121.254 15.9229 122.577 15.6393 124.071 15.6393C125.129 15.6393 126.046 15.7433 126.821 15.9512C127.615 16.1592 128.305 16.4049 128.891 16.6885L127.644 19.9496C126.982 19.6849 126.358 19.4675 125.772 19.2974C125.205 19.1272 124.638 19.0422 124.071 19.0422C123.333 19.0422 122.719 19.2218 122.227 19.581C121.736 19.9212 121.367 20.4411 121.121 21.1406C120.895 21.8212 120.781 22.6814 120.781 23.7211C120.781 24.742 120.904 25.5927 121.15 26.2733C121.414 26.935 121.793 27.4359 122.284 27.7762C122.776 28.0976 123.371 28.2583 124.071 28.2583C124.959 28.2583 125.744 28.1449 126.424 27.918C127.105 27.6722 127.766 27.3414 128.409 26.9255V30.5269C127.766 30.9428 127.086 31.2358 126.368 31.406C125.668 31.595 124.78 31.6895 123.702 31.6895ZM138.325 15.6109C140.405 15.6109 141.993 16.0646 143.089 16.9721C144.204 17.8606 144.762 19.2312 144.762 21.0839V31.406H141.813L140.991 29.3075H140.877C140.442 29.8558 139.989 30.3095 139.516 30.6687C139.062 31.0279 138.533 31.2831 137.928 31.4343C137.342 31.6045 136.614 31.6895 135.745 31.6895C134.837 31.6895 134.015 31.5194 133.277 31.1791C132.559 30.8199 131.992 30.2811 131.576 29.5627C131.16 28.8254 130.952 27.8991 130.952 26.7837C130.952 25.139 131.529 23.9291 132.682 23.154C133.835 22.36 135.565 21.9252 137.871 21.8495L140.565 21.7645V21.0839C140.565 20.271 140.348 19.6755 139.913 19.2974C139.497 18.9193 138.911 18.7302 138.155 18.7302C137.399 18.7302 136.661 18.8437 135.943 19.0705C135.225 19.2785 134.506 19.5431 133.788 19.8645L132.398 17.0004C133.23 16.5656 134.147 16.2253 135.149 15.9796C136.17 15.7338 137.229 15.6109 138.325 15.6109ZM138.921 24.2883C137.559 24.3261 136.614 24.5718 136.085 25.0256C135.555 25.4793 135.291 26.0748 135.291 26.8121C135.291 27.4548 135.48 27.918 135.858 28.2016C136.236 28.4663 136.728 28.5986 137.333 28.5986C138.24 28.5986 139.006 28.3339 139.629 27.8046C140.253 27.2563 140.565 26.4907 140.565 25.5076V24.2316L138.921 24.2883ZM155.609 28.315C156.082 28.315 156.536 28.2677 156.97 28.1732C157.405 28.0787 157.84 27.9653 158.275 27.8329V30.9806C157.821 31.1696 157.254 31.3303 156.573 31.4627C155.912 31.6139 155.184 31.6895 154.39 31.6895C153.464 31.6895 152.632 31.5383 151.894 31.2358C151.176 30.9333 150.599 30.4135 150.165 29.6762C149.749 28.92 149.541 27.8802 149.541 26.5569V19.0989H147.527V17.3124L149.853 15.8945L151.072 12.6334H153.766V15.9229H158.105V19.0989H153.766V26.5569C153.766 27.1429 153.936 27.5872 154.276 27.8897C154.617 28.1732 155.061 28.315 155.609 28.315ZM165.608 31.406H161.383V9.85439H165.608V31.406Z" fill="#F1EEF7"/>
</svg>
